:SAMPLES-PER-SECOND 30
:FULLY-SPECIFIED
:DEGREES
322
root  54.3528 37.9242 8.36312 172.02 76.6242 -179.802
RightUpLeg  -0.726284 2.07382 -3.48025
RightLeg  28.3201 6.82885 3.74362
RightFoot  -17.1747 -0.0433655 1.44893
RightToes  -8.73116e-010 0 -3.6325e-017
Spine  15.616 0.342746 10.414
Spine1  6.14225 2.81426 -5.12378
HEad  -29.0484 24.667 -0.962914
LeftShoulder1  -0.907651 5.76447 -33.958
LeftArm  -8.66476 30.2068 -36.8816
LeftForeArm  2.54426 -6.57154 -5.39314
LeftHand  -0.0931126 4.20941 7.73584
RightShoulder  -0.999959 -6.26496 29.6439
RightArm  27.2766 -7.65789 40.0071
RightForeArm  -4.66551 23.2493 5.27879
RightHand  -0.636498 4.29509 -7.89649
LeftUpLeg  -15.2983 7.22551 4.94213
LeftLeg  9.18397 -8.4425 -1.74721
LeftFoot  6.96937 1.83909 -11.6188
LeftToes  -5.63919e-011 3.32596e-011 1.92487e-011
323
root  53.2916 38.1932 8.65023 171.775 74.3976 -179.837
RightUpLeg  -0.867117 0.0970672 -3.92733
RightLeg  25.8472 6.96309 3.43725
RightFoot  -14.7185 -0.0422187 1.87934
RightToes  -8.73116e-010 0 -3.6325e-017
Spine  15.2912 0.136012 10.7113
Spine1  5.7989 2.51634 -4.51963
HEad  -27.7163 22.7674 -0.964044
LeftShoulder1  -0.800455 5.52019 -33.5312
LeftArm  -8.56222 27.7413 -37.8975
LeftForeArm  1.37248 -7.69539 -5.75525
LeftHand  -0.0183008 5.4121 7.58139
RightShoulder  -0.884487 -6.00383 28.8018
RightArm  24.3865 -9.28773 39.9768
RightForeArm  -5.46197 20.7849 5.27824
RightHand  -0.640533 4.33507 -7.92135
LeftUpLeg  -14.5464 8.04522 4.32243
LeftLeg  15.6829 -7.44755 -2.10281
LeftFoot  3.35381 1.38759 -10.9003
LeftToes  -5.63919e-011 3.32596e-011 1.92487e-011
324
root  52.2411 38.4144 8.89783 171.611 72.5256 -179.822
RightUpLeg  -1.01644 -1.9265 -4.41891
RightLeg  23.4299 7.32726 3.21771
RightFoot  -12.174 -0.0698089 2.05434
RightToes  -8.73116e-010 0 -3.6325e-017
Spine  14.9247 -0.0519372 10.5246
Spine1  5.35708 2.22298 -3.96252
HEad  -25.3801 20.5249 -0.67665
LeftShoulder1  -0.783461 5.50827 -32.9243
LeftArm  -8.29531 25.2942 -38.8889
LeftForeArm  1.79499 -9.54588 -6.00045
LeftHand  -0.112584 3.77925 6.9723
RightShoulder  -0.879731 -5.96975 29.0867
RightArm  23.6895 -10.4585 38.8961
RightForeArm  -6.59301 19.7143 5.51588
RightHand  -0.633632 4.69974 -7.58873
LeftUpLeg  -13.4647 7.20423 4.56881
LeftLeg  22.746 -4.26385 -1.59606
LeftFoot  0.264667 1.00736 -9.89274
LeftToes  -5.63919e-011 3.32596e-011 1.92487e-011
325
root  51.1502 38.5505 9.08888 171.449 71.2706 179.974
RightUpLeg  -1.71221 -3.3177 -4.86797
RightLeg  21.395 7.67142 2.80252
RightFoot  -10.0502 -0.103047 3.15905
RightToes  -8.73116e-010 0 -3.6325e-017
Spine  14.5307 -0.291342 10.8981
Spine1  4.8772 2.16122 -4.26627
HEad  -24.7821 20.0553 -0.679373
LeftShoulder1  -0.790259 5.54371 -32.5736
LeftArm  -6.77566 22.3517 -39.5822
LeftForeArm  4.03927 -11.943 -6.24847
LeftHand  -0.152181 3.07441 7.04056
RightShoulder  -0.816207 -5.81208 28.7303
RightArm  23.3994 -11.7621 38.6948
RightForeArm  -6.75475 19.5982 5.52735
RightHand  -0.588765 3.48119 -7.94679
LeftUpLeg  -12.1953 6.17563 5.02417
LeftLeg  29.8702 -0.990531 -0.297941
LeftFoot  -2.50839 0.623003 -7.83681
LeftToes  -5.63919e-011 3.32596e-011 1.92487e-011
326
root  50.0327 38.5916 9.24923 171.66 70.098 179.836
RightUpLeg  -2.99186 -5.80052 -5.53116
RightLeg  19.9758 9.14186 2.8515
RightFoot  -8.39734 -0.159959 4.01056
RightToes  -8.73116e-010 0 -3.6325e-017
Spine  13.5639 -0.412029 10.865
Spine1  4.92289 2.03648 -4.18694
HEad  -24.1097 19.0765 -0.927387
LeftShoulder1  -0.788073 5.49917 -33.3032
LeftArm  -4.29494 19.0397 -39.5017
LeftForeArm  6.71552 -15.2608 -5.87018
LeftHand  -0.145277 2.88039 6.23023
RightShoulder  -0.752526 -5.6782 27.9681
RightArm  22.6462 -12.9965 39.0263
RightForeArm  -5.43266 20.1085 5.33062
RightHand  -0.602906 4.1073 -7.64109
LeftUpLeg  -10.8552 4.82654 5.63473
LeftLeg  36.4779 -0.240686 0.154976
LeftFoot  -4.73381 0.353477 -5.68348
LeftToes  -5.63919e-011 3.32596e-011 1.92487e-011
327
root  48.8551 38.5183 9.3608 171.719 69.0872 -179.813
RightUpLeg  -4.05503 -6.87388 -6.05607
RightLeg  19.3075 9.70722 2.83612
RightFoot  -7.54523 -0.232645 5.46406
RightToes  -8.73116e-010 0 -3.6325e-017
Spine  13.2082 -0.907848 11.6498
Spine1  5.14686 1.98771 -5.3708
HEad  -24.5161 19.2914 -0.952356
LeftShoulder1  -0.698231 5.30254 -32.6486
LeftArm  -1.15612 15.8334 -40.3878
LeftForeArm  8.6532 -18.6438 -5.1694
LeftHand  -0.167821 1.8978 5.30606
RightShoulder  -0.823474 -5.8582 28.3762
RightArm  24.3505 -13.0971 38.5549
RightForeArm  -6.22153 21.5264 5.24472
RightHand  -0.617172 3.42949 -8.35753
LeftUpLeg  -8.25728 3.09553 6.49794
LeftLeg  41.6342 -0.931493 -0.523496
LeftFoot  -6.13851 0.250469 -4.68605
LeftToes  -5.63919e-011 3.32596e-011 1.92487e-011
328
root  47.6873 38.3779 9.44406 172.629 68.2989 -178.833
RightUpLeg  -5.68688 -7.1373 -6.2055
RightLeg  19.0757 9.18641 2.65562
RightFoot  -6.81144 -0.332872 7.23487
RightToes  -8.73116e-010 0 -3.6325e-017
Spine  12.8534 -1.32157 10.9509
Spine1  4.9303 1.30486 -4.34763
HEad  -24.8965 20.7876 -1.69983
LeftShoulder1  -0.826009 5.59464 -33.3456
LeftArm  1.48786 12.9446 -40.4565
LeftForeArm  10.1748 -22.0903 -4.4292
LeftHand  -0.254712 0.288631 5.82305
RightShoulder  -0.773393 -5.73429 28.0008
RightArm  25.0077 -12.8499 38.6028
RightForeArm  -5.83835 22.3219 5.21238
RightHand  -0.603327 3.77505 -7.8878
LeftUpLeg  -5.19132 1.1677 7.58165
LeftLeg  44.8517 -2.67595 -2.44028
LeftFoot  -7.39622 0.17818 -3.94988
LeftToes  -5.63919e-011 3.32596e-011 1.92487e-011
329
root  46.403 38.166 9.4543 171.816 68.4697 -179.473
RightUpLeg  -7.84147 -7.04464 -7.14999
RightLeg  19.7518 9.20352 2.99576
RightFoot  -6.09823 -0.448614 8.87723
RightToes  -8.73116e-010 0 -3.6325e-017
Spine  13.7449 -1.76439 9.99298
Spine1  3.42945 0.763919 -4.10146
HEad  -23.4881 19.8093 -1.77892
LeftShoulder1  -0.866244 5.71284 -33.0504
LeftArm  -0.2424 10.8724 -41.4025
LeftForeArm  15.7854 -24.3569 -4.38225
LeftHand  -0.281546 -0.190956 5.92811
RightShoulder  -0.588521 -5.25203 26.9489
RightArm  24.4589 -12.9794 39.9267
RightForeArm  -5.32005 22.7033 5.20482
RightHand  -0.637806 3.82528 -8.28236
LeftUpLeg  -1.08826 -0.0570378 7.77402
LeftLeg  45.6102 -4.34124 -4.32619
LeftFoot  -8.15849 0.190174 -4.94105
LeftToes  -5.63919e-011 3.32596e-011 1.92487e-011
330
root  45.1088 37.8944 9.46592 171.867 68.3483 -179.363
RightUpLeg  -10.0496 -6.44899 -7.77166
RightLeg  20.1727 8.40548 2.8991
RightFoot  -5.33725 -0.588011 10.486
RightToes  -8.73116e-010 0 -3.6325e-017
Spine  13.4364 -1.93742 8.89346
Spine1  3.55497 0.35351 -3.42996
HEad  -22.6181 18.336 -1.96266
LeftShoulder1  -0.829395 5.65746 -32.3073
LeftArm  0.215517 9.55033 -41.8325
LeftForeArm  18.7782 -29.1513 -5.28616
LeftHand  -0.266179 0.147541 5.94205
RightShoulder  -0.613242 -5.32699 26.8975
RightArm  24.0008 -11.972 40.531
RightForeArm  -4.69732 23.2333 5.224
RightHand  -0.609629 3.83039 -7.90873
LeftUpLeg  3.18029 -1.94919 7.86789
LeftLeg  44.1762 -6.74226 -6.56308
LeftFoot  -8.2785 0.217344 -6.73964
LeftToes  -5.63919e-011 3.32596e-011 1.92487e-011
331
root  43.7969 37.6818 9.45217 172.992 67.7748 -178.786
RightUpLeg  -12.0742 -6.82524 -8.3476
RightLeg  19.1445 8.03334 2.64849
RightFoot  -4.37152 -0.784549 12.3454
RightToes  -8.73116e-010 0 -3.6325e-017
Spine  11.9148 -2.10069 8.02859
Spine1  4.42739 -0.124245 -3.23579
HEad  -22.2781 16.2741 -1.86754
LeftShoulder1  -0.68339 5.32889 -31.3153
LeftArm  -0.690296 7.6636 -42.806
LeftForeArm  22.5565 -32.5296 -5.89436
LeftHand  -0.295691 -0.595423 5.83841
RightShoulder  -0.664693 -5.4636 27.2033
RightArm  22.8805 -10.8012 41.1249
RightForeArm  -5.24367 23.7548 5.34298
RightHand  -0.737677 4.39089 -9.03112
LeftUpLeg  6.84647 -4.88113 7.38281
LeftLeg  40.8938 -9.80061 -8.59928
LeftFoot  -11.7974 0.0386173 -9.19974
LeftToes  -5.63919e-011 3.32596e-011 1.92487e-011
332
root  42.4197 37.5368 9.37972 172.685 66.8247 -179.22
RightUpLeg  -12.9487 -7.89955 -9.4797
RightLeg  17.0207 7.93979 2.18126
RightFoot  -3.73516 -1.04408 15.2281
RightToes  -8.73116e-010 0 -3.6325e-017
Spine  11.5504 -2.12886 6.09108
Spine1  4.58915 -0.805436 -1.78905
HEad  -22.8473 15.2 -2.39915
LeftShoulder1  -0.651174 5.21627 -31.8525
LeftArm  -0.43884 5.69094 -42.6898
LeftForeArm  24.6482 -35.9934 -6.66962
LeftHand  -0.278428 -0.199752 5.8554
RightShoulder  -0.590509 -5.29197 26.2799
RightArm  19.7982 -10.781 42.338
RightForeArm  -3.57394 24.5953 5.44642
RightHand  -0.652626 4.29552 -8.06042
LeftUpLeg  10.5477 -8.4208 5.46213
LeftLeg  35.8825 -11.9928 -8.85316
LeftFoot  -16.3177 -0.215643 -7.56272
LeftToes  -5.63919e-011 3.32596e-011 1.92487e-011
